<mxfile host="app.diagrams.net" modified="2023-08-04T15:37:11.252Z" agent="Mozilla/5.0 (Windows NT 10.0; Win64; x64) AppleWebKit/537.36 (KHTML, like Gecko) Chrome/115.0.0.0 Safari/537.36" etag="6hZ1zZVZ4-n-L6ve8rB-" version="21.6.6" type="device">
  <diagram name="Trang-1" id="0holmFA6r3RfPqtt3kfP">
    <mxGraphModel dx="1434" dy="1882" grid="1" gridSize="10" guides="1" tooltips="1" connect="1" arrows="1" fold="1" page="1" pageScale="1" pageWidth="850" pageHeight="1100" math="0" shadow="0">
      <root>
        <mxCell id="0" />
        <mxCell id="1" parent="0" />
        <mxCell id="QDjVmzcr6Vy2rgSCTtbK-1" value="Guest" style="shape=umlActor;verticalLabelPosition=bottom;verticalAlign=top;html=1;outlineConnect=0;" vertex="1" parent="1">
          <mxGeometry x="100" y="-7.5" width="50" height="95" as="geometry" />
        </mxCell>
        <mxCell id="QDjVmzcr6Vy2rgSCTtbK-2" value="Login" style="ellipse;whiteSpace=wrap;html=1;" vertex="1" parent="1">
          <mxGeometry x="320" y="70" width="120" height="40" as="geometry" />
        </mxCell>
        <mxCell id="QDjVmzcr6Vy2rgSCTtbK-3" value="Signup" style="ellipse;whiteSpace=wrap;html=1;" vertex="1" parent="1">
          <mxGeometry x="320" y="120" width="120" height="40" as="geometry" />
        </mxCell>
        <mxCell id="QDjVmzcr6Vy2rgSCTtbK-4" value="" style="endArrow=classic;html=1;rounded=0;exitX=1;exitY=0.3333333333333333;exitDx=0;exitDy=0;exitPerimeter=0;entryX=0;entryY=0.66;entryDx=0;entryDy=0;entryPerimeter=0;" edge="1" parent="1" source="QDjVmzcr6Vy2rgSCTtbK-1" target="QDjVmzcr6Vy2rgSCTtbK-2">
          <mxGeometry width="50" height="50" relative="1" as="geometry">
            <mxPoint x="360" y="440" as="sourcePoint" />
            <mxPoint x="410" y="390" as="targetPoint" />
          </mxGeometry>
        </mxCell>
        <mxCell id="QDjVmzcr6Vy2rgSCTtbK-5" value="" style="endArrow=classic;html=1;rounded=0;entryX=0;entryY=0.5;entryDx=0;entryDy=0;exitX=1;exitY=0.3333333333333333;exitDx=0;exitDy=0;exitPerimeter=0;" edge="1" parent="1" target="QDjVmzcr6Vy2rgSCTtbK-3" source="QDjVmzcr6Vy2rgSCTtbK-1">
          <mxGeometry width="50" height="50" relative="1" as="geometry">
            <mxPoint x="120" y="80" as="sourcePoint" />
            <mxPoint x="298.8606362810824" y="230.92064879410282" as="targetPoint" />
          </mxGeometry>
        </mxCell>
        <mxCell id="QDjVmzcr6Vy2rgSCTtbK-6" value="Homepage" style="ellipse;whiteSpace=wrap;html=1;" vertex="1" parent="1">
          <mxGeometry x="320" y="-30" width="120" height="40" as="geometry" />
        </mxCell>
        <mxCell id="QDjVmzcr6Vy2rgSCTtbK-8" value="Products page" style="ellipse;whiteSpace=wrap;html=1;" vertex="1" parent="1">
          <mxGeometry x="320" y="22.5" width="120" height="35" as="geometry" />
        </mxCell>
        <mxCell id="QDjVmzcr6Vy2rgSCTtbK-9" value="" style="endArrow=classic;html=1;rounded=0;entryX=0.033;entryY=0.4;entryDx=0;entryDy=0;entryPerimeter=0;exitX=1;exitY=0.3333333333333333;exitDx=0;exitDy=0;exitPerimeter=0;" edge="1" parent="1" target="QDjVmzcr6Vy2rgSCTtbK-8" source="QDjVmzcr6Vy2rgSCTtbK-1">
          <mxGeometry width="50" height="50" relative="1" as="geometry">
            <mxPoint x="120" y="290" as="sourcePoint" />
            <mxPoint x="306.03999999999996" y="317.03999999999996" as="targetPoint" />
          </mxGeometry>
        </mxCell>
        <mxCell id="QDjVmzcr6Vy2rgSCTtbK-10" value="Filter Product" style="ellipse;whiteSpace=wrap;html=1;" vertex="1" parent="1">
          <mxGeometry x="520" y="17.5" width="120" height="40" as="geometry" />
        </mxCell>
        <mxCell id="QDjVmzcr6Vy2rgSCTtbK-14" value="User" style="shape=umlActor;verticalLabelPosition=bottom;verticalAlign=top;html=1;outlineConnect=0;" vertex="1" parent="1">
          <mxGeometry x="105" y="285" width="40" height="90" as="geometry" />
        </mxCell>
        <mxCell id="QDjVmzcr6Vy2rgSCTtbK-15" value="User page" style="ellipse;whiteSpace=wrap;html=1;" vertex="1" parent="1">
          <mxGeometry x="320" y="220" width="120" height="40" as="geometry" />
        </mxCell>
        <mxCell id="QDjVmzcr6Vy2rgSCTtbK-17" value="" style="endArrow=classic;html=1;rounded=0;entryX=0;entryY=0.5;entryDx=0;entryDy=0;exitX=1;exitY=0.3333333333333333;exitDx=0;exitDy=0;exitPerimeter=0;" edge="1" parent="1" target="QDjVmzcr6Vy2rgSCTtbK-15" source="QDjVmzcr6Vy2rgSCTtbK-14">
          <mxGeometry width="50" height="50" relative="1" as="geometry">
            <mxPoint x="100" y="570" as="sourcePoint" />
            <mxPoint x="278.8606362810824" y="535.9206487941028" as="targetPoint" />
          </mxGeometry>
        </mxCell>
        <mxCell id="QDjVmzcr6Vy2rgSCTtbK-18" value="createAuction" style="ellipse;whiteSpace=wrap;html=1;" vertex="1" parent="1">
          <mxGeometry x="320" y="270" width="120" height="35" as="geometry" />
        </mxCell>
        <mxCell id="QDjVmzcr6Vy2rgSCTtbK-19" value="" style="endArrow=classic;html=1;rounded=0;entryX=0.017;entryY=0.338;entryDx=0;entryDy=0;exitX=1;exitY=0.3333333333333333;exitDx=0;exitDy=0;exitPerimeter=0;entryPerimeter=0;" edge="1" parent="1" source="QDjVmzcr6Vy2rgSCTtbK-14" target="QDjVmzcr6Vy2rgSCTtbK-18">
          <mxGeometry width="50" height="50" relative="1" as="geometry">
            <mxPoint x="110" y="605" as="sourcePoint" />
            <mxPoint x="270" y="625" as="targetPoint" />
          </mxGeometry>
        </mxCell>
        <mxCell id="QDjVmzcr6Vy2rgSCTtbK-20" value="Notification" style="ellipse;whiteSpace=wrap;html=1;" vertex="1" parent="1">
          <mxGeometry x="320" y="360" width="120" height="50" as="geometry" />
        </mxCell>
        <mxCell id="QDjVmzcr6Vy2rgSCTtbK-21" value="" style="endArrow=classic;html=1;rounded=0;entryX=0;entryY=0.5;entryDx=0;entryDy=0;exitX=1;exitY=0.3333333333333333;exitDx=0;exitDy=0;exitPerimeter=0;" edge="1" parent="1" target="QDjVmzcr6Vy2rgSCTtbK-20" source="QDjVmzcr6Vy2rgSCTtbK-14">
          <mxGeometry width="50" height="50" relative="1" as="geometry">
            <mxPoint x="100" y="595" as="sourcePoint" />
            <mxPoint x="286.03999999999996" y="622.04" as="targetPoint" />
          </mxGeometry>
        </mxCell>
        <mxCell id="QDjVmzcr6Vy2rgSCTtbK-22" value="Raise" style="ellipse;whiteSpace=wrap;html=1;" vertex="1" parent="1">
          <mxGeometry x="320" y="310" width="120" height="40" as="geometry" />
        </mxCell>
        <mxCell id="QDjVmzcr6Vy2rgSCTtbK-23" value="" style="endArrow=classic;html=1;rounded=0;entryX=0;entryY=0.5;entryDx=0;entryDy=0;exitX=1;exitY=0.3333333333333333;exitDx=0;exitDy=0;exitPerimeter=0;" edge="1" parent="1" target="QDjVmzcr6Vy2rgSCTtbK-22" source="QDjVmzcr6Vy2rgSCTtbK-14">
          <mxGeometry width="50" height="50" relative="1" as="geometry">
            <mxPoint x="100" y="595" as="sourcePoint" />
            <mxPoint x="381.03999999999996" y="709" as="targetPoint" />
          </mxGeometry>
        </mxCell>
        <mxCell id="QDjVmzcr6Vy2rgSCTtbK-25" value="confirm aution" style="ellipse;whiteSpace=wrap;html=1;" vertex="1" parent="1">
          <mxGeometry x="320" y="420" width="120" height="50" as="geometry" />
        </mxCell>
        <mxCell id="QDjVmzcr6Vy2rgSCTtbK-26" value="" style="endArrow=classic;html=1;rounded=0;exitX=1;exitY=0.3333333333333333;exitDx=0;exitDy=0;exitPerimeter=0;entryX=0;entryY=0.5;entryDx=0;entryDy=0;" edge="1" parent="1" target="QDjVmzcr6Vy2rgSCTtbK-25" source="QDjVmzcr6Vy2rgSCTtbK-14">
          <mxGeometry width="50" height="50" relative="1" as="geometry">
            <mxPoint x="100" y="570" as="sourcePoint" />
            <mxPoint x="531.04" y="664" as="targetPoint" />
          </mxGeometry>
        </mxCell>
        <mxCell id="QDjVmzcr6Vy2rgSCTtbK-27" value="" style="endArrow=classic;html=1;rounded=0;exitX=0;exitY=0.5;exitDx=0;exitDy=0;entryX=1;entryY=0.5;entryDx=0;entryDy=0;" edge="1" parent="1" source="QDjVmzcr6Vy2rgSCTtbK-10" target="QDjVmzcr6Vy2rgSCTtbK-8">
          <mxGeometry relative="1" as="geometry">
            <mxPoint x="370" y="300" as="sourcePoint" />
            <mxPoint x="470" y="300" as="targetPoint" />
          </mxGeometry>
        </mxCell>
        <mxCell id="QDjVmzcr6Vy2rgSCTtbK-28" value="&amp;lt;&amp;lt;extend&amp;gt;&amp;gt;" style="edgeLabel;resizable=0;html=1;align=center;verticalAlign=middle;" connectable="0" vertex="1" parent="QDjVmzcr6Vy2rgSCTtbK-27">
          <mxGeometry relative="1" as="geometry" />
        </mxCell>
        <mxCell id="QDjVmzcr6Vy2rgSCTtbK-30" value="Extends" style="endArrow=block;endSize=16;endFill=0;html=1;rounded=0;exitX=0.5;exitY=0;exitDx=0;exitDy=0;exitPerimeter=0;" edge="1" parent="1" source="QDjVmzcr6Vy2rgSCTtbK-14" target="QDjVmzcr6Vy2rgSCTtbK-1">
          <mxGeometry width="160" relative="1" as="geometry">
            <mxPoint x="520" y="450" as="sourcePoint" />
            <mxPoint x="680" y="450" as="targetPoint" />
          </mxGeometry>
        </mxCell>
        <mxCell id="QDjVmzcr6Vy2rgSCTtbK-65" style="edgeStyle=orthogonalEdgeStyle;rounded=0;orthogonalLoop=1;jettySize=auto;html=1;entryX=1;entryY=0.5;entryDx=0;entryDy=0;" edge="1" parent="1" source="QDjVmzcr6Vy2rgSCTtbK-32" target="QDjVmzcr6Vy2rgSCTtbK-36">
          <mxGeometry relative="1" as="geometry">
            <Array as="points">
              <mxPoint x="895" y="180" />
              <mxPoint x="600" y="180" />
            </Array>
          </mxGeometry>
        </mxCell>
        <mxCell id="QDjVmzcr6Vy2rgSCTtbK-32" value="Admin" style="shape=umlActor;verticalLabelPosition=bottom;verticalAlign=top;html=1;" vertex="1" parent="1">
          <mxGeometry x="920" y="87.5" width="30" height="60" as="geometry" />
        </mxCell>
        <mxCell id="QDjVmzcr6Vy2rgSCTtbK-34" value="AdminPage" style="ellipse;whiteSpace=wrap;html=1;" vertex="1" parent="1">
          <mxGeometry x="480" y="135" width="120" height="35" as="geometry" />
        </mxCell>
        <mxCell id="QDjVmzcr6Vy2rgSCTtbK-35" value="" style="endArrow=classic;html=1;rounded=0;entryX=0;entryY=0.5;entryDx=0;entryDy=0;exitX=1;exitY=0.3333333333333333;exitDx=0;exitDy=0;exitPerimeter=0;" edge="1" parent="1" source="QDjVmzcr6Vy2rgSCTtbK-1" target="QDjVmzcr6Vy2rgSCTtbK-6">
          <mxGeometry width="50" height="50" relative="1" as="geometry">
            <mxPoint x="120" y="290" as="sourcePoint" />
            <mxPoint x="342" y="334" as="targetPoint" />
          </mxGeometry>
        </mxCell>
        <mxCell id="QDjVmzcr6Vy2rgSCTtbK-36" value="ChartBoard" style="ellipse;whiteSpace=wrap;html=1;" vertex="1" parent="1">
          <mxGeometry x="480" y="180" width="120" height="40" as="geometry" />
        </mxCell>
        <mxCell id="QDjVmzcr6Vy2rgSCTtbK-37" value="UserManagement" style="ellipse;whiteSpace=wrap;html=1;" vertex="1" parent="1">
          <mxGeometry x="480" y="80" width="120" height="40" as="geometry" />
        </mxCell>
        <mxCell id="QDjVmzcr6Vy2rgSCTtbK-38" value="AuctionManagement" style="ellipse;whiteSpace=wrap;html=1;" vertex="1" parent="1">
          <mxGeometry x="480" y="380" width="120" height="40" as="geometry" />
        </mxCell>
        <mxCell id="QDjVmzcr6Vy2rgSCTtbK-39" value="ChatManagement" style="ellipse;whiteSpace=wrap;html=1;" vertex="1" parent="1">
          <mxGeometry x="480" y="330" width="120" height="40" as="geometry" />
        </mxCell>
        <mxCell id="QDjVmzcr6Vy2rgSCTtbK-40" value="Chat" style="ellipse;whiteSpace=wrap;html=1;" vertex="1" parent="1">
          <mxGeometry x="320" y="170" width="120" height="40" as="geometry" />
        </mxCell>
        <mxCell id="QDjVmzcr6Vy2rgSCTtbK-41" value="" style="endArrow=classic;html=1;rounded=0;entryX=0;entryY=0.5;entryDx=0;entryDy=0;exitX=1;exitY=0.3333333333333333;exitDx=0;exitDy=0;exitPerimeter=0;" edge="1" parent="1" source="QDjVmzcr6Vy2rgSCTtbK-14" target="QDjVmzcr6Vy2rgSCTtbK-40">
          <mxGeometry width="50" height="50" relative="1" as="geometry">
            <mxPoint x="130" y="530" as="sourcePoint" />
            <mxPoint x="290" y="410" as="targetPoint" />
          </mxGeometry>
        </mxCell>
        <mxCell id="QDjVmzcr6Vy2rgSCTtbK-42" value="Search" style="ellipse;whiteSpace=wrap;html=1;" vertex="1" parent="1">
          <mxGeometry x="530" y="-47.5" width="120" height="40" as="geometry" />
        </mxCell>
        <mxCell id="QDjVmzcr6Vy2rgSCTtbK-43" value="" style="endArrow=classic;html=1;rounded=0;entryX=0.008;entryY=0.7;entryDx=0;entryDy=0;entryPerimeter=0;exitX=0.975;exitY=0.3;exitDx=0;exitDy=0;exitPerimeter=0;" edge="1" parent="1" source="QDjVmzcr6Vy2rgSCTtbK-6" target="QDjVmzcr6Vy2rgSCTtbK-42">
          <mxGeometry relative="1" as="geometry">
            <mxPoint x="412" y="264" as="sourcePoint" />
            <mxPoint x="487" y="285" as="targetPoint" />
          </mxGeometry>
        </mxCell>
        <mxCell id="QDjVmzcr6Vy2rgSCTtbK-44" value="&amp;lt;&amp;lt;extend&amp;gt;&amp;gt;" style="edgeLabel;resizable=0;html=1;align=center;verticalAlign=middle;" connectable="0" vertex="1" parent="QDjVmzcr6Vy2rgSCTtbK-43">
          <mxGeometry relative="1" as="geometry" />
        </mxCell>
        <mxCell id="QDjVmzcr6Vy2rgSCTtbK-45" value="ActionLog" style="ellipse;whiteSpace=wrap;html=1;" vertex="1" parent="1">
          <mxGeometry x="480" y="230" width="120" height="40" as="geometry" />
        </mxCell>
        <mxCell id="QDjVmzcr6Vy2rgSCTtbK-46" value="SystemConfig" style="ellipse;whiteSpace=wrap;html=1;" vertex="1" parent="1">
          <mxGeometry x="480" y="280" width="120" height="40" as="geometry" />
        </mxCell>
        <mxCell id="QDjVmzcr6Vy2rgSCTtbK-59" style="edgeStyle=orthogonalEdgeStyle;rounded=0;orthogonalLoop=1;jettySize=auto;html=1;entryX=1;entryY=0.75;entryDx=0;entryDy=0;entryPerimeter=0;" edge="1" parent="1" target="QDjVmzcr6Vy2rgSCTtbK-46">
          <mxGeometry relative="1" as="geometry">
            <mxPoint x="740" y="220" as="sourcePoint" />
          </mxGeometry>
        </mxCell>
        <mxCell id="QDjVmzcr6Vy2rgSCTtbK-60" style="edgeStyle=orthogonalEdgeStyle;rounded=0;orthogonalLoop=1;jettySize=auto;html=1;entryX=1.008;entryY=0.675;entryDx=0;entryDy=0;entryPerimeter=0;exitX=0;exitY=0.3333333333333333;exitDx=0;exitDy=0;exitPerimeter=0;" edge="1" parent="1" source="QDjVmzcr6Vy2rgSCTtbK-47" target="QDjVmzcr6Vy2rgSCTtbK-39">
          <mxGeometry relative="1" as="geometry">
            <mxPoint x="740" y="220" as="sourcePoint" />
          </mxGeometry>
        </mxCell>
        <mxCell id="QDjVmzcr6Vy2rgSCTtbK-61" style="edgeStyle=orthogonalEdgeStyle;rounded=0;orthogonalLoop=1;jettySize=auto;html=1;entryX=1.008;entryY=0.75;entryDx=0;entryDy=0;entryPerimeter=0;exitX=0;exitY=0.3333333333333333;exitDx=0;exitDy=0;exitPerimeter=0;" edge="1" parent="1" source="QDjVmzcr6Vy2rgSCTtbK-47" target="QDjVmzcr6Vy2rgSCTtbK-38">
          <mxGeometry relative="1" as="geometry" />
        </mxCell>
        <mxCell id="QDjVmzcr6Vy2rgSCTtbK-62" style="edgeStyle=orthogonalEdgeStyle;rounded=0;orthogonalLoop=1;jettySize=auto;html=1;entryX=1;entryY=0.5;entryDx=0;entryDy=0;exitX=0;exitY=0.3333333333333333;exitDx=0;exitDy=0;exitPerimeter=0;" edge="1" parent="1" source="QDjVmzcr6Vy2rgSCTtbK-47" target="QDjVmzcr6Vy2rgSCTtbK-34">
          <mxGeometry relative="1" as="geometry" />
        </mxCell>
        <mxCell id="QDjVmzcr6Vy2rgSCTtbK-63" style="edgeStyle=orthogonalEdgeStyle;rounded=0;orthogonalLoop=1;jettySize=auto;html=1;entryX=1;entryY=0.5;entryDx=0;entryDy=0;exitX=0;exitY=0.3333333333333333;exitDx=0;exitDy=0;exitPerimeter=0;" edge="1" parent="1" source="QDjVmzcr6Vy2rgSCTtbK-47" target="QDjVmzcr6Vy2rgSCTtbK-45">
          <mxGeometry relative="1" as="geometry" />
        </mxCell>
        <mxCell id="QDjVmzcr6Vy2rgSCTtbK-64" style="edgeStyle=orthogonalEdgeStyle;rounded=0;orthogonalLoop=1;jettySize=auto;html=1;entryX=1.008;entryY=0.725;entryDx=0;entryDy=0;entryPerimeter=0;exitX=0;exitY=0.3333333333333333;exitDx=0;exitDy=0;exitPerimeter=0;" edge="1" parent="1" source="QDjVmzcr6Vy2rgSCTtbK-47" target="QDjVmzcr6Vy2rgSCTtbK-37">
          <mxGeometry relative="1" as="geometry" />
        </mxCell>
        <mxCell id="QDjVmzcr6Vy2rgSCTtbK-47" value="SystemAdmin" style="shape=umlActor;verticalLabelPosition=bottom;verticalAlign=top;html=1;" vertex="1" parent="1">
          <mxGeometry x="740" y="190" width="50" height="80" as="geometry" />
        </mxCell>
        <mxCell id="QDjVmzcr6Vy2rgSCTtbK-48" value="UserAdmin" style="shape=umlActor;verticalLabelPosition=bottom;verticalAlign=top;html=1;" vertex="1" parent="1">
          <mxGeometry x="760" y="-30" width="40" height="65" as="geometry" />
        </mxCell>
        <mxCell id="QDjVmzcr6Vy2rgSCTtbK-49" value="ChatSupport" style="shape=umlActor;verticalLabelPosition=bottom;verticalAlign=top;html=1;" vertex="1" parent="1">
          <mxGeometry x="745" y="305" width="40" height="80" as="geometry" />
        </mxCell>
        <mxCell id="QDjVmzcr6Vy2rgSCTtbK-53" value="" style="endArrow=classic;html=1;rounded=0;entryX=1;entryY=0.5;entryDx=0;entryDy=0;exitX=0;exitY=0.3333333333333333;exitDx=0;exitDy=0;exitPerimeter=0;" edge="1" parent="1" source="QDjVmzcr6Vy2rgSCTtbK-48" target="QDjVmzcr6Vy2rgSCTtbK-37">
          <mxGeometry width="50" height="50" relative="1" as="geometry">
            <mxPoint x="800" y="-70" as="sourcePoint" />
            <mxPoint x="970" y="-104" as="targetPoint" />
          </mxGeometry>
        </mxCell>
        <mxCell id="QDjVmzcr6Vy2rgSCTtbK-54" value="" style="endArrow=classic;html=1;rounded=0;entryX=1;entryY=0.5;entryDx=0;entryDy=0;exitX=0;exitY=0.3333333333333333;exitDx=0;exitDy=0;exitPerimeter=0;" edge="1" parent="1" source="QDjVmzcr6Vy2rgSCTtbK-49" target="QDjVmzcr6Vy2rgSCTtbK-39">
          <mxGeometry width="50" height="50" relative="1" as="geometry">
            <mxPoint x="720" y="89" as="sourcePoint" />
            <mxPoint x="610" y="110" as="targetPoint" />
          </mxGeometry>
        </mxCell>
        <mxCell id="QDjVmzcr6Vy2rgSCTtbK-69" value="Extends" style="endArrow=block;endSize=16;endFill=0;html=1;rounded=0;exitX=1;exitY=0.3333333333333333;exitDx=0;exitDy=0;exitPerimeter=0;" edge="1" parent="1" source="QDjVmzcr6Vy2rgSCTtbK-48">
          <mxGeometry width="160" relative="1" as="geometry">
            <mxPoint x="350" y="140" as="sourcePoint" />
            <mxPoint x="920" y="80" as="targetPoint" />
          </mxGeometry>
        </mxCell>
        <mxCell id="QDjVmzcr6Vy2rgSCTtbK-71" value="Extends" style="endArrow=block;endSize=16;endFill=0;html=1;rounded=0;exitX=1;exitY=0.3333333333333333;exitDx=0;exitDy=0;exitPerimeter=0;edgeStyle=orthogonalEdgeStyle;" edge="1" parent="1" source="QDjVmzcr6Vy2rgSCTtbK-49">
          <mxGeometry x="-0.0023" width="160" relative="1" as="geometry">
            <mxPoint x="780" y="319.9666666666665" as="sourcePoint" />
            <mxPoint x="945" y="188.3" as="targetPoint" />
            <mxPoint as="offset" />
          </mxGeometry>
        </mxCell>
        <mxCell id="QDjVmzcr6Vy2rgSCTtbK-73" value="Extends" style="endArrow=block;endSize=16;endFill=0;html=1;rounded=0;exitX=1;exitY=1;exitDx=0;exitDy=0;exitPerimeter=0;edgeStyle=orthogonalEdgeStyle;" edge="1" parent="1" source="QDjVmzcr6Vy2rgSCTtbK-47">
          <mxGeometry width="160" relative="1" as="geometry">
            <mxPoint x="350" y="140" as="sourcePoint" />
            <mxPoint x="930" y="180" as="targetPoint" />
          </mxGeometry>
        </mxCell>
        <mxCell id="QDjVmzcr6Vy2rgSCTtbK-74" value="" style="rounded=0;whiteSpace=wrap;html=1;fillColor=none;strokeWidth=3;" vertex="1" parent="1">
          <mxGeometry x="270" y="-90" width="430" height="610" as="geometry" />
        </mxCell>
      </root>
    </mxGraphModel>
  </diagram>
</mxfile>
